<svg xmlns="http://www.w3.org/2000/svg" viewBox="0 0 420 420" role="img" aria-labelledby="title desc">
  <title id="title">Florian Stuck Baumservice Logo</title>
  <desc id="desc">Dunkles quadratisches Logo mit hellgrünem Baum, weißen Rahmenklammern und Schriftzug Baumservice</desc>
  <rect width="420" height="420" fill="#34313d"/>
  <rect x="3" y="3" width="414" height="414" fill="none" stroke="#d7d4d5" stroke-width="3"/>

  <g fill="none" stroke="#f7f5f1" stroke-width="13" stroke-linecap="square">
    <path d="M126 73H77v108"/>
    <path d="M294 73h49v108"/>
    <path d="M77 207v66h108"/>
    <path d="M343 207v66H235"/>
  </g>

  <g fill="#b9df6f">
    <path d="M206 57c-14 6-19 18-14 29-17-5-33 6-33 21-20-4-37 9-38 28-18 3-31 18-31 36 0 24 21 41 48 38 6 18 24 30 46 30 17 0 32-7 41-18 11 11 27 17 44 15 27-3 46-24 43-48 16-8 25-24 22-42-4-25-30-40-57-32-5-17-21-27-39-25-5-22-18-37-32-32z"/>
    <path d="M198 214c2 36-2 64-12 91-16 13-34 20-57 23 24 13 55 9 77-4 24 15 57 17 86 5-24-5-45-13-62-25-11-27-15-55-13-90z"/>
    <ellipse cx="211" cy="332" rx="73" ry="9"/>
  </g>

  <g fill="none" stroke="#34313d" stroke-width="6" stroke-linecap="round" stroke-linejoin="round" opacity=".82">
    <path d="M160 144c25 13 43 31 52 58"/>
    <path d="M260 138c-28 21-43 42-51 67"/>
    <path d="M204 119c11 25 15 54 11 89"/>
    <path d="M179 184c20 6 37 8 57 4"/>
  </g>

  <text x="210" y="347" text-anchor="middle" fill="#d7d4d5"
        font-family="Inter, Arial, Helvetica, sans-serif" font-size="18" font-weight="600"
        letter-spacing="8">FLORIAN STUCK</text>
  <text x="210" y="386" text-anchor="middle" fill="#ffffff"
        font-family="Inter, Arial, Helvetica, sans-serif" font-size="44" font-weight="900"
        letter-spacing="1">BAUMSERVICE</text>
</svg>
